<svg width="529" height="152" viewBox="0 0 529 152" fill="none" xmlns="http://www.w3.org/2000/svg">
<path d="M97.1953 106.445H102.469C101.492 116.667 98.7904 125.163 94.3633 131.934C90.0013 138.639 84.1745 143.652 76.8828 146.973C69.6562 150.293 61.2904 151.953 51.7852 151.953C43.9727 151.953 36.9089 150.456 30.5938 147.461C24.2786 144.466 18.8424 140.202 14.2852 134.668C9.79297 129.134 6.34245 122.559 3.93359 114.941C1.52474 107.259 0.320312 98.7956 0.320312 89.5508V68.2617C0.320312 58.9518 1.52474 50.4883 3.93359 42.8711C6.34245 35.2539 9.79297 28.6784 14.2852 23.1445C18.8424 17.6107 24.2786 13.3464 30.5938 10.3516C36.9089 7.35677 43.9727 5.85938 51.7852 5.85938C61.2904 5.85938 69.6562 7.51953 76.8828 10.8398C84.1745 14.1602 90.0013 19.1732 94.3633 25.8789C98.7904 32.5846 101.492 41.0156 102.469 51.1719H97.1953C96.2188 42.4479 93.8424 35.1237 90.0664 29.1992C86.3555 23.2747 81.2773 18.7826 74.832 15.7227C68.4518 12.6628 60.7695 11.1328 51.7852 11.1328C44.8841 11.1328 38.6016 12.5 32.9375 15.2344C27.2734 17.9036 22.3906 21.7448 18.2891 26.7578C14.2526 31.7708 11.1276 37.7604 8.91406 44.7266C6.70052 51.6927 5.59375 59.4727 5.59375 68.0664V89.5508C5.59375 98.1445 6.70052 105.957 8.91406 112.988C11.1276 120.02 14.2526 126.042 18.2891 131.055C22.3906 136.068 27.2734 139.941 32.9375 142.676C38.6016 145.345 44.8841 146.68 51.7852 146.68C60.5742 146.68 68.1914 145.28 74.6367 142.48C81.082 139.616 86.1927 135.221 89.9688 129.297C93.8099 123.307 96.2188 115.69 97.1953 106.445Z" fill="black"/>
<path d="M139.285 0V150H134.012V0H139.285Z" fill="black"/>
<path d="M211.941 151.953C205.496 151.953 199.474 150.684 193.875 148.145C188.276 145.54 183.361 141.895 179.129 137.207C174.897 132.52 171.577 126.986 169.168 120.605C166.824 114.16 165.652 107.096 165.652 99.4141V95.1172C165.652 87.3698 166.792 80.306 169.07 73.9258C171.414 67.4805 174.604 61.9141 178.641 57.2266C182.742 52.474 187.462 48.8281 192.801 46.2891C198.139 43.6849 203.868 42.3828 209.988 42.3828C215.848 42.3828 221.219 43.4896 226.102 45.7031C230.984 47.8516 235.216 50.9115 238.797 54.8828C242.443 58.8542 245.242 63.6068 247.195 69.1406C249.148 74.6745 250.125 80.7943 250.125 87.5V93.6523H169.07V88.3789H244.852V87.1094C244.852 80.013 243.419 73.5026 240.555 67.5781C237.69 61.5885 233.654 56.7708 228.445 53.125C223.237 49.4792 217.085 47.6562 209.988 47.6562C204.129 47.6562 198.79 48.8932 193.973 51.3672C189.22 53.8411 185.118 57.2591 181.668 61.6211C178.217 65.918 175.548 70.931 173.66 76.6602C171.837 82.3893 170.926 88.5417 170.926 95.1172V99.4141C170.926 105.99 171.967 112.142 174.051 117.871C176.134 123.6 179.031 128.646 182.742 133.008C186.453 137.305 190.783 140.69 195.73 143.164C200.743 145.573 206.147 146.777 211.941 146.777C217.996 146.777 223.628 145.768 228.836 143.75C234.109 141.732 238.927 137.891 243.289 132.227L247 134.863C244.656 138.184 241.824 141.146 238.504 143.75C235.249 146.289 231.408 148.307 226.98 149.805C222.618 151.237 217.605 151.953 211.941 151.953Z" fill="black"/>
<path d="M279.031 66.9922V150H273.66V44.3359H279.031V66.9922ZM278.348 88.0859L275.516 82.5195C276.167 77.3112 277.566 72.3307 279.715 67.5781C281.928 62.7604 284.793 58.4635 288.309 54.6875C291.889 50.9115 296.023 47.9167 300.711 45.7031C305.464 43.4896 310.704 42.3828 316.434 42.3828C321.772 42.3828 326.525 43.099 330.691 44.5312C334.923 45.8984 338.471 48.0794 341.336 51.0742C344.266 54.0039 346.479 57.8451 347.977 62.5977C349.539 67.3503 350.32 73.0469 350.32 79.6875V150H345.047V79.6875C345.047 71.224 343.81 64.681 341.336 60.0586C338.862 55.4362 335.444 52.2135 331.082 50.3906C326.72 48.5026 321.74 47.5586 316.141 47.5586C309.5 47.5586 303.836 49.056 299.148 52.0508C294.461 54.9805 290.62 58.6589 287.625 63.0859C284.63 67.513 282.384 72.0052 280.887 76.5625C279.389 81.1198 278.543 84.9609 278.348 88.0859ZM350.32 79.6875L346.707 76.4648C347.358 71.9727 348.79 67.7083 351.004 63.6719C353.283 59.5703 356.212 55.9245 359.793 52.7344C363.374 49.5443 367.54 47.0378 372.293 45.2148C377.111 43.3268 382.384 42.3828 388.113 42.3828C393.452 42.3828 398.204 43.1315 402.371 44.6289C406.603 46.0612 410.151 48.3724 413.016 51.5625C415.945 54.6875 418.159 58.724 419.656 63.6719C421.219 68.6198 422 74.6094 422 81.6406V150H416.727V81.6406C416.727 72.6562 415.49 65.6901 413.016 60.7422C410.542 55.7943 407.124 52.3438 402.762 50.3906C398.4 48.4375 393.419 47.4935 387.82 47.5586C381.57 47.6237 376.134 48.7956 371.512 51.0742C366.954 53.2878 363.146 56.0872 360.086 59.4727C357.026 62.8581 354.682 66.3737 353.055 70.0195C351.492 73.6003 350.581 76.8229 350.32 79.6875Z" fill="black"/>
<path d="M528.055 144.727V150H447.195V144.727H528.055ZM522.293 49.0234L449.051 150H445.73V145.703L519.07 44.3359H522.293V49.0234ZM519.852 44.3359V49.707H448.758V44.3359H519.852Z" fill="black"/>
</svg>
