<svg width="547" height="200" viewBox="0 0 547 200" fill="none" xmlns="http://www.w3.org/2000/svg">
<g id="Clemz">
<path id="z" d="M541.82 162.727V168H460.961V162.727H541.82ZM536.059 67.0234L462.816 168H459.496V163.703L532.836 62.3359H536.059V67.0234ZM533.617 62.3359V67.707H462.523V62.3359H533.617Z" fill="black"/>
<path id="m" d="M293.094 84.9922V168H287.723V62.3359H293.094V84.9922ZM292.41 106.086L289.578 100.52C290.229 95.3112 291.629 90.3307 293.777 85.5781C295.991 80.7604 298.855 76.4635 302.371 72.6875C305.952 68.9115 310.086 65.9167 314.773 63.7031C319.526 61.4896 324.767 60.3828 330.496 60.3828C335.835 60.3828 340.587 61.099 344.754 62.5312C348.986 63.8984 352.534 66.0794 355.398 69.0742C358.328 72.0039 360.542 75.8451 362.039 80.5977C363.602 85.3503 364.383 91.0469 364.383 97.6875V168H359.109V97.6875C359.109 89.224 357.872 82.681 355.398 78.0586C352.924 73.4362 349.507 70.2135 345.145 68.3906C340.783 66.5026 335.802 65.5586 330.203 65.5586C323.562 65.5586 317.898 67.056 313.211 70.0508C308.523 72.9805 304.682 76.6589 301.688 81.0859C298.693 85.513 296.447 90.0052 294.949 94.5625C293.452 99.1198 292.605 102.961 292.41 106.086ZM364.383 97.6875L360.77 94.4648C361.421 89.9727 362.853 85.7083 365.066 81.6719C367.345 77.5703 370.275 73.9245 373.855 70.7344C377.436 67.5443 381.603 65.0378 386.355 63.2148C391.173 61.3268 396.447 60.3828 402.176 60.3828C407.514 60.3828 412.267 61.1315 416.434 62.6289C420.665 64.0612 424.214 66.3724 427.078 69.5625C430.008 72.6875 432.221 76.724 433.719 81.6719C435.281 86.6198 436.062 92.6094 436.062 99.6406V168H430.789V99.6406C430.789 90.6562 429.552 83.6901 427.078 78.7422C424.604 73.7943 421.186 70.3438 416.824 68.3906C412.462 66.4375 407.482 65.4935 401.883 65.5586C395.633 65.6237 390.197 66.7956 385.574 69.0742C381.017 71.2878 377.208 74.0872 374.148 77.4727C371.089 80.8581 368.745 84.3737 367.117 88.0195C365.555 91.6003 364.643 94.8229 364.383 97.6875Z" fill="black"/>
<path id="e" d="M225.785 169.953C219.34 169.953 213.318 168.684 207.719 166.145C202.12 163.54 197.204 159.895 192.973 155.207C188.741 150.52 185.421 144.986 183.012 138.605C180.668 132.16 179.496 125.096 179.496 117.414V113.117C179.496 105.37 180.635 98.306 182.914 91.9258C185.258 85.4805 188.448 79.9141 192.484 75.2266C196.586 70.474 201.306 66.8281 206.645 64.2891C211.983 61.6849 217.712 60.3828 223.832 60.3828C229.691 60.3828 235.062 61.4896 239.945 63.7031C244.828 65.8516 249.06 68.9115 252.641 72.8828C256.286 76.8542 259.086 81.6068 261.039 87.1406C262.992 92.6745 263.969 98.7943 263.969 105.5V111.652H182.914V106.379H258.695V105.109C258.695 98.013 257.263 91.5026 254.398 85.5781C251.534 79.5885 247.497 74.7708 242.289 71.125C237.081 67.4792 230.928 65.6562 223.832 65.6562C217.973 65.6562 212.634 66.8932 207.816 69.3672C203.064 71.8411 198.962 75.2591 195.512 79.6211C192.061 83.918 189.392 88.931 187.504 94.6602C185.681 100.389 184.77 106.542 184.77 113.117V117.414C184.77 123.99 185.811 130.142 187.895 135.871C189.978 141.6 192.875 146.646 196.586 151.008C200.297 155.305 204.626 158.69 209.574 161.164C214.587 163.573 219.991 164.777 225.785 164.777C231.84 164.777 237.471 163.768 242.68 161.75C247.953 159.732 252.771 155.891 257.133 150.227L260.844 152.863C258.5 156.184 255.668 159.146 252.348 161.75C249.092 164.289 245.251 166.307 240.824 167.805C236.462 169.237 231.449 169.953 225.785 169.953Z" fill="black"/>
<path id="l" d="M153.34 18V168H148.066V18H153.34Z" fill="black"/>
<path id="C" d="M110.938 124.445H116.211C115.234 134.667 112.533 143.163 108.105 149.934C103.743 156.639 97.9167 161.652 90.625 164.973C83.3984 168.293 75.0326 169.953 65.5273 169.953C57.7148 169.953 50.651 168.456 44.3359 165.461C38.0208 162.466 32.5846 158.202 28.0273 152.668C23.5352 147.134 20.0846 140.559 17.6758 132.941C15.2669 125.259 14.0625 116.796 14.0625 107.551V86.2617C14.0625 76.9518 15.2669 68.4883 17.6758 60.8711C20.0846 53.2539 23.5352 46.6784 28.0273 41.1445C32.5846 35.6107 38.0208 31.3464 44.3359 28.3516C50.651 25.3568 57.7148 23.8594 65.5273 23.8594C75.0326 23.8594 83.3984 25.5195 90.625 28.8398C97.9167 32.1602 103.743 37.1732 108.105 43.8789C112.533 50.5846 115.234 59.0156 116.211 69.1719H110.938C109.961 60.4479 107.585 53.1237 103.809 47.1992C100.098 41.2747 95.0195 36.7826 88.5742 33.7227C82.194 30.6628 74.5117 29.1328 65.5273 29.1328C58.6263 29.1328 52.3438 30.5 46.6797 33.2344C41.0156 35.9036 36.1328 39.7448 32.0312 44.7578C27.9948 49.7708 24.8698 55.7604 22.6562 62.7266C20.4427 69.6927 19.3359 77.4727 19.3359 86.0664V107.551C19.3359 116.145 20.4427 123.957 22.6562 130.988C24.8698 138.02 27.9948 144.042 32.0312 149.055C36.1328 154.068 41.0156 157.941 46.6797 160.676C52.3438 163.345 58.6263 164.68 65.5273 164.68C74.3164 164.68 81.9336 163.28 88.3789 160.48C94.8242 157.616 99.9349 153.221 103.711 147.297C107.552 141.307 109.961 133.69 110.938 124.445Z" fill="black"/>
</g>
</svg>
