<svg width="142" height="45" viewBox="0 0 142 45" fill="none" xmlns="http://www.w3.org/2000/svg">
<path d="M115.819 44.4024H26.0566C11.8663 44.4024 0.5 34.51 0.5 22.4512C0.5 10.3924 11.8663 0.5 26.0566 0.5H115.819C130.01 0.5 141.376 10.3924 141.376 22.4512C141.376 34.51 130.01 44.4024 115.819 44.4024Z" fill="#FC886F" stroke="#EB3404"/>
<path d="M141.5 22.4997V22.5C141.5 34.6865 132.299 44.5 121.014 44.5H102.549C111.731 37.6721 117.348 28.7552 117.348 18.9451C117.348 12.2545 114.726 5.98228 110.149 0.5H121.022C132.307 0.5 141.508 10.3135 141.5 22.4997Z" fill="#AFCB2E" stroke="#89A00B"/>
<path d="M140.909 28.9788C140.819 28.6696 140.73 28.4291 140.66 28.2917C140.082 27.0807 137.58 29.8978 137.58 29.8978C137.58 29.8978 135.267 35.9357 131.938 30.4818C130.662 28.3947 123.046 30.1383 125.01 33.6855C128.419 39.8179 118.032 39.6547 118.032 39.6547C113.128 41.3639 116.637 44.8767 116.637 44.8767C116.637 44.8767 120.614 44.5074 120.933 44.5245C132.197 44.0865 137.789 37.894 140.909 28.9788Z" fill="#72529D"/>
<path d="M128.907 14.1801C128.907 14.1801 128.569 16.9801 131.499 15.8979C135.088 14.5838 132.257 12.4709 132.257 12.4709C132.257 12.4709 130.662 10.3066 133.014 10.109C134.539 9.98018 133.473 7.48083 131.34 7.08575C129.206 6.69066 129.057 7.87592 127.532 7.48083C126.007 7.08575 125.857 6.433 124.482 5.64283C123.724 5.2048 120.524 4.85266 120.973 6.95692C121.242 8.17653 122.488 8.86364 123.475 9.23295C124.123 9.46485 124.272 10.2035 123.744 10.5986C123.305 10.9335 122.697 11.32 121.89 11.6808C119.996 12.5311 123.146 15.2022 124.362 14.6267C127.342 13.2182 127.342 11.947 128.907 14.1801Z" fill="#72529D"/>
<path d="M36.3588 11.3774L40.0429 32.739L33.0933 33.0024L32.9817 27.7578H27.0089L26.8973 32.284L21.5386 32.4037L26.3112 17.0052L23.2132 17.1968L23.3527 11.7846L36.3588 11.3774ZM33.5678 15.5683L30.721 15.7599L29.465 23.9501L35.354 23.6388L33.5678 15.5683Z" fill="#D04E2F"/>
<path d="M40.6052 12.982C41.2379 12.982 41.8519 12.966 42.4473 12.9341C43.0613 12.9021 43.7033 12.8542 44.3731 12.7904C45.6384 12.6786 46.5966 12.5828 47.2478 12.503C47.8991 12.4072 48.2247 12.3194 48.2247 12.2396C48.1875 12.3194 48.1037 12.7105 47.9735 13.413C47.8432 14.1155 47.6758 15.1612 47.4711 16.5502L46.6338 22.0582L50.0388 21.5314C50.7459 21.4515 51.546 21.3637 52.4391 21.2679C53.3508 21.1721 54.1602 21.1243 54.8673 21.1243C55.6301 21.1243 56.1697 21.2759 56.486 21.5793C56.6535 21.7389 56.7651 21.9944 56.821 22.3456C56.8954 22.6968 56.9326 23.1518 56.9326 23.7106C56.9326 24.3333 56.8954 25.0118 56.821 25.7462C56.7465 26.4806 56.6442 27.2948 56.5139 28.1889C56.3837 29.051 56.2255 29.7535 56.0395 30.2963C55.8534 30.8391 55.686 31.2462 55.5371 31.5177C55.2766 31.9966 54.6998 32.3798 53.8067 32.6672C52.9322 32.9545 51.6948 33.0982 50.0946 33.0982C48.8108 33.0982 47.4153 33.0184 45.9081 32.8587C44.401 32.715 42.7543 32.4915 40.9681 32.1882C41.1169 31.7731 41.2193 31.1026 41.2751 30.1766C41.3309 29.2346 41.3588 28.0133 41.3588 26.5125C41.3588 25.2672 41.3402 23.99 41.303 22.6809C41.2658 21.3717 41.2007 20.0067 41.1076 18.5858C40.9588 15.8397 40.7913 13.9718 40.6052 12.982ZM45.2662 24.7164C44.8941 24.8601 44.615 25.1874 44.4289 25.6983C44.2429 26.2092 44.1498 27.0314 44.1498 28.1649C44.1498 28.5002 44.1591 28.7876 44.1777 29.0271C44.2149 29.2665 44.2801 29.4821 44.3731 29.6737C44.4103 29.7535 44.494 29.8253 44.6243 29.8892C44.7731 29.9371 44.9313 29.969 45.0988 29.985C45.5081 30.0169 45.9081 30.0329 46.2989 30.0329C46.6896 30.0169 47.099 29.993 47.5269 29.961C47.9735 29.9291 48.4107 29.8892 48.8387 29.8413C49.2853 29.7774 49.6481 29.7056 49.9272 29.6258C50.2807 29.514 50.5319 29.3224 50.6808 29.051C50.8296 28.7636 50.9412 28.2368 51.0157 27.4705C51.0529 26.9915 51.0529 26.5285 51.0157 26.0815C50.9971 25.6344 50.9133 25.2752 50.7645 25.0038C50.7273 24.94 50.6342 24.8681 50.4854 24.7883C50.3365 24.6925 50.0946 24.6127 49.7597 24.5488C49.3318 24.469 48.941 24.4211 48.5875 24.4051C48.2526 24.3732 47.8991 24.3572 47.5269 24.3572C46.9873 24.3572 46.5408 24.3971 46.1872 24.477C45.8337 24.5408 45.5267 24.6206 45.2662 24.7164Z" fill="#D04E2F"/>
<path d="M62.1084 19.3521C61.9781 19.5916 61.8665 19.871 61.7735 20.1903C61.699 20.4936 61.6618 20.9327 61.6618 21.5074C61.6618 22.1301 61.6897 22.7288 61.7455 23.3035C61.82 23.8783 61.9316 24.437 62.0805 24.9799C62.2107 25.5546 62.3689 26.0016 62.5549 26.321C62.741 26.6403 62.9271 26.8318 63.1131 26.8957C63.8202 27.1192 64.5365 27.231 65.2622 27.231C65.9693 27.231 66.4995 27.1112 66.8531 26.8718C67.2252 26.6323 67.4857 26.2651 67.6346 25.7701C68.0253 24.6366 68.2579 23.6388 68.3323 22.7767C68.4067 21.9145 68.4439 21.26 68.4439 20.8129C68.4439 20.2701 68.3788 19.8869 68.2486 19.6634C68.1369 19.4239 67.895 19.2483 67.5229 19.1366C67.2066 19.0408 66.8531 18.9769 66.4623 18.945C66.0716 18.9131 65.6716 18.8971 65.2622 18.8971C64.8529 18.8811 64.4528 18.8811 64.0621 18.8971C63.6899 18.9131 63.3457 18.929 63.0294 18.945C62.6759 18.9769 62.4433 19.0328 62.3317 19.1126C62.2386 19.1925 62.1642 19.2723 62.1084 19.3521ZM58.8708 17.6997C59.4662 17.2367 60.3221 16.9334 61.4385 16.7897C62.5549 16.63 63.9318 16.5262 65.5692 16.4784C66.1832 16.4464 66.7414 16.4384 67.2438 16.4544C67.7462 16.4544 68.2951 16.4863 68.8905 16.5502C69.5976 16.63 70.2302 16.7338 70.7884 16.8615C71.3466 16.9892 71.7094 17.093 71.8769 17.1728C72.8258 17.6997 73.3003 19.0887 73.3003 21.3398C73.3003 22.2498 73.2352 23.1518 73.1049 24.0459C72.9747 24.924 72.77 25.8101 72.4909 26.7041C72.1746 27.678 71.8304 28.5002 71.4582 29.1708C71.0861 29.8253 70.686 30.3602 70.2581 30.7753C69.0673 31.8609 67.2624 32.4037 64.8436 32.4037C64.1923 32.4037 63.5783 32.3638 63.0015 32.284C62.4433 32.2201 61.8944 32.1004 61.3548 31.9248C60.8524 31.797 60.4431 31.6214 60.1268 31.3979C59.8291 31.1584 59.6337 30.9509 59.5407 30.7753C59.1127 29.8972 58.7127 28.5242 58.3405 26.6562C58.1731 25.6504 58.0614 24.7164 58.0056 23.8543C57.9498 22.9762 57.9219 22.138 57.9219 21.3398C57.9219 20.3819 57.9963 19.5916 58.1452 18.9689C58.3126 18.3463 58.5545 17.9232 58.8708 17.6997Z" fill="#D04E2F"/>
<path d="M89.8498 16.622C89.9615 16.8934 90.0731 17.2447 90.1847 17.6757C90.315 18.0908 90.4359 18.6017 90.5476 19.2084C90.6406 19.9269 90.715 20.6293 90.7709 21.3158C90.8267 22.0023 90.8546 22.6729 90.8546 23.3275C90.8546 27.1272 89.9242 29.2745 88.0636 29.7695C87.0402 30.0568 86.0075 30.2803 84.9656 30.44C83.9422 30.5837 82.8165 30.6555 81.5885 30.6555C78.7975 30.6555 76.7879 30.1686 75.5599 29.1947C75.0947 28.8435 74.7505 28.1729 74.5272 27.1831C74.304 26.1932 74.1923 24.8921 74.1923 23.2796C74.1923 22.6729 74.2016 22.0103 74.2202 21.2919C74.2574 20.5575 74.3226 19.7832 74.4156 18.9689L74.5551 17.1728L80.4442 16.3347C80.5372 16.4784 80.593 16.646 80.6116 16.8376C80.6302 17.0132 80.6395 17.2128 80.6395 17.4363C80.6395 17.8035 80.5744 18.3144 80.4442 18.9689C80.3325 19.6075 80.1371 20.4058 79.858 21.3637C79.5976 22.3216 79.4022 23.1279 79.2719 23.7825C79.1417 24.4211 79.0766 24.924 79.0766 25.2912C79.0766 25.7861 79.1696 26.1453 79.3557 26.3688C79.5417 26.5924 79.8301 26.744 80.2209 26.8239C80.8163 26.9516 81.4024 27.0234 81.9792 27.0394C82.556 27.0554 83.17 27.0474 83.8213 27.0154C84.6586 26.9835 85.3005 26.9276 85.7471 26.8478C86.2122 26.768 86.5006 26.6403 86.6123 26.4646C86.8169 26.1453 86.91 25.7781 86.8914 25.363C86.8914 25.2193 86.8635 25.0118 86.8076 24.7404C86.7518 24.469 86.6774 24.1816 86.5844 23.8783C86.5099 23.559 86.4169 23.2397 86.3053 22.9203C86.2122 22.601 86.1006 22.3137 85.9703 22.0582C85.7098 21.5473 85.4587 21.0364 85.2168 20.5256C84.9749 20.0147 84.6958 19.5118 84.3795 19.0168C84.2306 18.7933 84.0818 18.5778 83.9329 18.3702C83.8027 18.1627 83.6631 17.9472 83.5143 17.7236C83.3468 17.6438 83.8864 17.3724 85.133 16.9094C85.8401 16.638 86.4634 16.4544 87.003 16.3586C87.5612 16.2469 88.0543 16.191 88.4822 16.191C89.1707 16.191 89.6266 16.3347 89.8498 16.622Z" fill="#D04E2F"/>
<path d="M91.5809 14.8499L94.651 15.1133L94.2603 11.8803L100.456 11.4972L99.9818 15.4007L105.62 15.6881L105.341 19.9748C103.331 20.0226 101.433 19.9987 99.6469 19.9029C99.5539 21.5154 99.4794 23.3275 99.4236 25.3391C99.3864 27.3347 99.3864 29.5459 99.4236 31.9727H95.2092L94.8185 21.4356L91.6925 21.244L91.5809 14.8499Z" fill="#D04E2F"/>
</svg>
