<svg width="143" height="46" viewBox="0 0 143 46" fill="none" xmlns="http://www.w3.org/2000/svg">
<g clip-path="url(#clip0_425_660)">
<path d="M116.324 45.0249H26.5617C12.3715 45.0249 1.00513 35.1326 1.00513 23.0737C1.00513 11.0149 12.3715 1.12256 26.5617 1.12256H116.324C130.515 1.12256 141.881 11.0149 141.881 23.0737C141.881 35.1326 130.515 45.0249 116.324 45.0249Z" fill="#FEEE63" stroke="#C8C000"/>
<path d="M130.087 39.2178C133.458 36.3132 134.269 32.3026 131.898 30.2599C129.528 28.2173 124.873 28.9161 121.502 31.8207C118.131 34.7254 117.32 38.736 119.69 40.7786C122.061 42.8213 126.716 42.1225 130.087 39.2178Z" fill="#C8C000"/>
<path d="M25.5249 11.5645C27.5509 11.5645 29.1932 10.1495 29.1932 8.40385C29.1932 6.65825 27.5509 5.24316 25.5249 5.24316C23.499 5.24316 21.8567 6.65825 21.8567 8.40385C21.8567 10.1495 23.499 11.5645 25.5249 11.5645Z" fill="#C8C000"/>
<path d="M18.973 39.1319C21.4541 37.4378 21.2729 33.6805 18.5682 30.7396C15.8635 27.7987 11.6596 26.7879 9.1785 28.482C6.69738 30.176 6.8786 33.9334 9.58326 36.8743C12.2879 39.8152 16.4918 40.8259 18.973 39.1319Z" fill="#C8C000"/>
<path d="M124.158 7.53824C124.503 5.30492 121.351 3.09997 117.116 2.61335C112.882 2.12673 109.169 3.54271 108.823 5.77603C108.478 8.00936 111.63 10.2143 115.864 10.7009C120.099 11.1875 123.812 9.77156 124.158 7.53824Z" fill="#C8C000"/>
<path d="M111.42 43.9015C112.807 43.9015 113.932 42.9325 113.932 41.7371C113.932 40.5418 112.807 39.5728 111.42 39.5728C110.033 39.5728 108.908 40.5418 108.908 41.7371C108.908 42.9325 110.033 43.9015 111.42 43.9015Z" fill="#C8C000"/>
<path d="M13.0749 23.7009C14.4677 23.7009 15.5968 22.728 15.5968 21.528C15.5968 20.3279 14.4677 19.355 13.0749 19.355C11.6821 19.355 10.553 20.3279 10.553 21.528C10.553 22.728 11.6821 23.7009 13.0749 23.7009Z" fill="#C8C000"/>
<path d="M37.0999 12.5176C37.3045 13.9864 37.5185 15.3594 37.7418 16.6366C37.9651 17.9138 38.179 19.1192 38.3837 20.2528C38.8861 22.9509 39.3699 25.0823 39.835 26.6469C40.3188 28.1955 40.7561 29.2093 41.1468 29.6882C41.3701 29.1614 41.8259 27.3892 42.5144 24.3718C43.2028 21.3384 44.1332 17.0358 45.3054 11.4639L48.4592 12.6134L46.2822 22.0967C44.7193 28.6585 43.668 32.5301 43.1284 33.7115L39.3885 33.5199L35.5927 33.3044C35.0903 31.7557 34.467 29.2891 33.7227 25.9045C32.9785 22.5198 32.0947 18.1773 31.0713 12.8768L37.0999 12.5176Z" fill="#9F9800"/>
<path d="M54.7754 13.7389L54.7475 14.1939C54.7475 15.0082 54.9987 16.3971 55.501 18.3609L48.8585 19.0554C49.2306 17.0757 49.5004 15.551 49.6679 14.4813C49.8539 13.3957 49.9283 12.7491 49.8911 12.5415L54.7754 13.7389ZM55.9755 21.067C55.7895 21.961 55.6034 23.4378 55.4173 25.4974C55.2313 27.5409 55.0359 30.1911 54.8312 33.4481H49.8353L49.2492 21.6417L55.9755 21.067Z" fill="#9F9800"/>
<path d="M59.4148 12.9007C60.2335 12.9007 61.0336 12.797 61.815 12.5894C62.6151 12.3819 63.5175 12.0705 64.5223 11.6555C64.299 12.1025 64.1037 12.9087 63.9362 14.0742C63.7687 15.2237 63.6292 16.7164 63.5175 18.5525C63.4059 20.3885 63.3222 22.5518 63.2664 25.0423C63.2291 27.517 63.2105 30.2949 63.2105 33.3762H57.8239L56.9587 12.3978C57.275 12.5575 57.6378 12.6852 58.0472 12.781C58.4751 12.8608 58.931 12.9007 59.4148 12.9007Z" fill="#9F9800"/>
<path d="M67.5915 12.9007C68.4102 12.9007 69.2103 12.797 69.9918 12.5894C70.7919 12.3819 71.6943 12.0705 72.6991 11.6555C72.4758 12.1025 72.2804 12.9087 72.113 14.0742C71.9455 15.2237 71.8059 16.7164 71.6943 18.5525C71.5827 20.3885 71.4989 22.5518 71.4431 25.0423C71.4059 27.517 71.3873 30.2949 71.3873 33.3762H66.0007L65.1355 12.3978C65.4518 12.5575 65.8146 12.6852 66.2239 12.781C66.6519 12.8608 67.1078 12.9007 67.5915 12.9007Z" fill="#9F9800"/>
<path d="M73.1727 21.4262C73.2099 21.2666 73.2471 21.083 73.2843 20.8754C73.3215 20.6679 73.368 20.4124 73.4238 20.1091C73.4797 19.8057 73.5355 19.4465 73.5913 19.0314C73.6657 18.6004 73.7495 18.0815 73.8425 17.4748C74.0472 17.3471 74.3356 17.2433 74.7077 17.1635C75.0984 17.0677 75.6287 16.9639 76.2986 16.8522C77.0801 16.7244 77.8057 16.6446 78.4756 16.6127C79.164 16.5807 79.8618 16.5648 80.5688 16.5648C81.9643 16.5648 83.1179 16.6366 84.0297 16.7803C84.9414 16.908 85.667 17.0916 86.2066 17.3311C86.2997 17.4748 86.402 17.6584 86.5136 17.8819C86.6253 18.0895 86.7369 18.3609 86.8486 18.6961C86.9788 19.0314 87.1184 19.4385 87.2672 19.9175C87.4161 20.3964 87.5742 20.9712 87.7417 21.6417C88.5232 24.6592 88.9139 27.0939 88.9139 28.9459C88.9139 29.7601 88.8395 30.4067 88.6906 30.8856C88.5604 31.3486 88.3092 31.6919 87.9371 31.9154C87.7696 32.0112 87.3044 32.1229 86.5416 32.2507C85.7787 32.3784 84.6902 32.5061 83.2761 32.6338L82.8016 31.652L78.1685 31.9393C76.0288 31.9393 74.7728 31.7158 74.4007 31.2688C74.2332 31.0932 74.0937 30.4546 73.9821 29.353C73.9262 28.8102 73.889 28.2833 73.8704 27.7724C73.8518 27.2615 73.8425 26.7666 73.8425 26.2876C73.8425 25.5692 73.9541 25.0902 74.1774 24.8508C74.2518 24.755 74.3914 24.6592 74.5961 24.5634C74.8007 24.4676 75.0891 24.3798 75.4613 24.3C75.8334 24.2201 76.2986 24.1483 76.8568 24.0844C77.415 24.0206 78.0848 23.9647 78.8663 23.9168C79.592 23.8689 80.2711 23.837 80.9037 23.821C81.5364 23.7891 82.0946 23.7571 82.5783 23.7252C83.0621 23.6773 83.4528 23.6374 83.7505 23.6055C84.0669 23.5576 84.2715 23.4937 84.3646 23.4139C84.3646 23.1105 84.346 22.8391 84.3087 22.5997C84.2901 22.3602 84.2343 22.1047 84.1413 21.8333C84.0483 21.5779 83.9552 21.3623 83.8622 21.1867C83.7692 21.0111 83.6482 20.8036 83.4994 20.5641C83.4621 20.4843 83.3691 20.4284 83.2203 20.3964C83.0714 20.3486 82.9133 20.3246 82.7458 20.3246C82.4295 20.3246 81.9922 20.3885 81.434 20.5162C80.8944 20.6279 80.206 20.7956 79.3687 21.0191L79.5641 22.1686C79.4152 22.2325 79.2198 22.2724 78.9779 22.2883C78.7547 22.2883 78.5128 22.2883 78.2523 22.2883C77.7685 22.2883 77.2661 22.2724 76.7451 22.2404C76.2242 22.1925 75.638 22.1047 74.9868 21.977C74.41 21.8493 73.9727 21.7375 73.675 21.6417C73.3773 21.53 73.2099 21.4581 73.1727 21.4262ZM80.2897 29.1135C80.3641 29.2891 80.5781 29.4328 80.9316 29.5446C81.2852 29.6403 81.7968 29.6882 82.4667 29.6882C83.918 29.6882 84.8018 29.4967 85.1181 29.1135C85.4531 28.7623 85.6205 27.964 85.6205 26.7187C85.6205 26.4473 85.6019 26.2397 85.5647 26.0961C85.5275 25.9524 85.481 25.8406 85.4252 25.7608C85.3507 25.681 85.2484 25.6091 85.1181 25.5453C84.9879 25.4654 84.7088 25.3856 84.2808 25.3058C83.9459 25.2419 83.611 25.21 83.2761 25.21C82.9598 25.194 82.6342 25.186 82.2992 25.186C81.7596 25.186 81.3317 25.2419 81.0154 25.3537C80.7177 25.4495 80.4944 25.5373 80.3455 25.6171C80.2525 25.7129 80.1781 25.8885 80.1223 26.1439C80.0664 26.3834 80.0385 26.7347 80.0385 27.1977C80.0385 28.1715 80.1223 28.8102 80.2897 29.1135Z" fill="#9F9800"/>
<path d="M99.9567 16.3253C101.092 16.2934 102.096 16.3572 102.971 16.5169C103.845 16.6765 104.525 16.8442 105.008 17.0198C104.953 17.2433 104.887 17.4668 104.813 17.6903C104.757 17.8979 104.692 18.1214 104.618 18.3609C104.562 18.5844 104.497 18.8398 104.422 19.1272C104.366 19.4146 104.301 19.7419 104.227 20.1091C104.171 20.3805 104.125 20.604 104.087 20.7796C104.069 20.9393 104.041 21.1229 104.004 21.3304C103.985 21.538 103.957 21.7934 103.92 22.0967C103.883 22.3841 103.845 22.7833 103.808 23.2941C103.771 23.7731 103.743 24.3 103.725 24.8747C103.725 25.4495 103.743 25.9923 103.78 26.5032C103.818 27.1258 103.855 27.7405 103.892 28.3472C103.929 28.9379 103.957 29.5446 103.976 30.1672C104.013 31.4285 103.957 32.4343 103.808 33.1846C103.659 33.919 103.464 34.406 103.222 34.6455C103.111 34.7413 102.571 34.877 101.603 35.0526C100.636 35.2442 99.2217 35.4597 97.361 35.6992L91.2487 36.3937C91.1743 36.218 91.0999 36.0344 91.0255 35.8429C90.951 35.6672 90.8766 35.4677 90.8022 35.2442C90.7464 35.0206 90.6719 34.7732 90.5789 34.5018C90.3742 33.7833 90.2533 33.1926 90.2161 32.7296C90.1975 32.2666 90.2068 31.8835 90.244 31.5801C90.2998 31.181 90.3742 30.8777 90.4673 30.6701C90.5789 30.4466 90.7092 30.263 90.858 30.1193C91.1557 30.1991 91.5092 30.279 91.9186 30.3588C92.3279 30.4386 92.7466 30.5184 93.1745 30.5983C94.0118 30.726 94.7003 30.8138 95.2399 30.8617C95.7981 30.9096 96.2167 30.9335 96.4958 30.9335C96.6447 30.9335 96.8028 30.9415 96.9703 30.9575C97.1564 30.9575 97.3238 30.9495 97.4727 30.9335C97.361 31.189 97.2122 31.4524 97.0261 31.7238C96.8587 31.9793 96.7191 32.1948 96.6075 32.3704C96.4028 32.6897 96.2353 32.9132 96.1051 33.041C95.9748 33.1527 95.8446 33.2884 95.7143 33.4481C95.9562 33.5119 96.2446 33.5439 96.5796 33.5439C96.9145 33.5598 97.2122 33.5678 97.4727 33.5678C98.3472 33.5678 98.8496 33.3842 98.9798 33.017C99.1845 32.538 99.2961 32.0272 99.3147 31.4843C99.352 30.9256 99.3706 30.2071 99.3706 29.329C99.3706 29.0416 99.3613 28.7463 99.3426 28.4429C99.3426 28.1396 99.324 27.9879 99.2868 27.9879C98.2076 27.9879 97.3331 27.9879 96.6633 27.9879C95.9935 27.9879 95.4166 27.972 94.9329 27.94C93.9467 27.8921 93.1559 27.8043 92.5605 27.6766C91.9837 27.5329 91.5837 27.3653 91.3604 27.1737C90.4487 26.2956 89.9928 25.2579 89.9928 24.0605C89.9928 23.7412 90.03 23.3261 90.1044 22.8152C90.1789 22.2883 90.2905 21.7375 90.4394 21.1628C90.5882 20.588 90.765 20.0213 90.9696 19.4625C91.1743 18.9037 91.4069 18.4247 91.6674 18.0256C91.8349 17.7702 92.0767 17.5786 92.3931 17.4509C92.7094 17.3231 93.1652 17.2593 93.7606 17.2593C94.2444 17.2593 94.7003 17.2752 95.1282 17.3072C95.5562 17.3231 96.0121 17.3471 96.4958 17.379C96.9982 17.4109 97.5285 17.4509 98.0867 17.4987C98.6635 17.5466 99.1659 17.6025 99.5938 17.6664C99.5938 17.6664 99.5938 17.6105 99.5938 17.4987C99.6124 17.387 99.6311 17.2593 99.6497 17.1156C99.6869 16.9719 99.7241 16.8282 99.7613 16.6845C99.8171 16.5249 99.8822 16.4051 99.9567 16.3253ZM99.2868 19.5343C97.8727 19.4864 96.9424 19.5982 96.4958 19.8696C95.9934 20.2847 95.7423 21.3544 95.7423 23.0786C95.7423 24.1483 95.8911 25.0104 96.1888 25.665C96.3191 25.7129 96.4214 25.7608 96.4958 25.8087C96.5889 25.8566 96.7098 25.9045 96.8587 25.9524C97.1378 26.0322 97.5006 26.12 97.9472 26.2158C98.3937 26.3116 98.831 26.3675 99.2589 26.3834C99.2217 26.0322 99.1938 25.7209 99.1752 25.4495C99.1566 25.1621 99.138 24.8907 99.1194 24.6352C99.1194 24.3798 99.1194 24.1323 99.1194 23.8928C99.1194 23.6374 99.1194 23.358 99.1194 23.0547C99.1194 22.2724 99.138 21.5859 99.1752 20.9951C99.2124 20.3885 99.2496 19.9015 99.2868 19.5343Z" fill="#9F9800"/>
<path d="M106.84 17.834C107.435 17.0198 109.352 16.6127 112.589 16.6127C113.929 16.6127 115.083 16.6606 116.05 16.7564C117.018 16.8362 117.79 16.9879 118.367 17.2114C118.981 17.4987 119.539 18.5764 120.041 20.4443C120.376 21.9131 120.544 23.0467 120.544 23.8449V23.9886C120.581 24.0685 120.348 24.1962 119.846 24.3718C119.343 24.5315 118.553 24.7071 117.473 24.8987C116.245 25.1222 115.045 25.2818 113.873 25.3776C112.701 25.4734 111.557 25.5213 110.44 25.5213L108.598 25.4255V25.8566C108.598 26.128 108.645 26.4313 108.738 26.7666C108.831 27.0859 108.98 27.3254 109.184 27.485L113.203 27.7006L114.487 27.7245C114.543 27.7245 114.571 27.6766 114.571 27.5808L114.487 27.1258L114.375 26.6948C115.138 26.6149 115.873 26.5191 116.58 26.4074C117.306 26.2956 118.134 26.2397 119.064 26.2397C119.436 26.2397 119.697 26.2557 119.846 26.2876C120.013 26.3036 120.171 26.3276 120.32 26.3595L118.478 31.5801L116.804 31.652L112.729 31.7478C110.831 31.7478 109.342 31.66 108.263 31.4843C107.184 31.3087 106.496 31.0134 106.198 30.5983C105.714 30.0714 105.472 28.5707 105.472 26.0961C105.472 25.2339 105.5 24.3958 105.556 23.5815C105.63 22.7513 105.723 21.9371 105.835 21.1388C106.095 19.4625 106.43 18.3609 106.84 17.834ZM108.347 20.7796C108.272 20.9233 108.235 21.1468 108.235 21.4502C108.235 21.6577 108.235 21.8732 108.235 22.0967C108.235 22.3043 108.254 22.5118 108.291 22.7194C108.347 23.0866 108.468 23.366 108.654 23.5576C108.859 23.7651 109.417 23.8689 110.329 23.8689C110.812 23.8689 111.259 23.8609 111.668 23.8449C112.078 23.829 112.478 23.7891 112.868 23.7252C113.296 23.6454 113.631 23.5496 113.873 23.4378C114.134 23.3101 114.301 23.1824 114.375 23.0547C114.431 22.9429 114.459 22.7992 114.459 22.6236C114.478 22.432 114.487 22.2005 114.487 21.9291C114.487 21.4502 114.385 21.1229 114.18 20.9472C114.031 20.7716 113.603 20.6359 112.896 20.5401C112.412 20.4922 111.994 20.4603 111.64 20.4443C111.305 20.4124 110.97 20.3964 110.636 20.3964C109.259 20.3964 108.496 20.5242 108.347 20.7796Z" fill="#9F9800"/>
</g>
<defs>
<clipPath id="clip0_425_660">
<rect width="141.876" height="44.9024" fill="white" transform="translate(0.505127 0.622559)"/>
</clipPath>
</defs>
</svg>
