<svg width="144" height="46" viewBox="0 0 144 46" fill="none" xmlns="http://www.w3.org/2000/svg">
<g clip-path="url(#clip0_425_653)">
<path d="M116.787 45.0249H26.2885C11.9762 45.0249 0.518311 35.1291 0.518311 23.0737C0.518311 11.0184 11.9762 1.12256 26.2885 1.12256H116.787C131.099 1.12256 142.557 11.0184 142.557 23.0737C142.557 35.1291 131.099 45.0249 116.787 45.0249Z" fill="#ABCEC2" stroke="#7896C2"/>
<path d="M122.806 40.0751C124.669 37.8254 124.592 35.0422 122.635 33.8586C120.677 32.675 117.581 33.5392 115.718 35.7889C113.855 38.0386 113.932 40.8218 115.889 42.0054C117.847 43.189 120.943 42.3248 122.806 40.0751Z" fill="#7896C2"/>
<path d="M134.961 34.2188C136.077 32.5675 136.124 30.8058 135.067 30.284C134.009 29.7622 132.247 30.6779 131.132 32.3293C130.016 33.9807 129.969 35.7423 131.026 36.2641C132.084 36.7859 133.846 35.8702 134.961 34.2188Z" fill="#7896C2"/>
<path d="M131.918 27.1986C133.515 25.0816 133.417 22.5987 131.701 21.6529C129.984 20.7071 127.298 21.6567 125.701 23.7737C124.104 25.8907 124.201 28.3736 125.918 29.3194C127.635 30.2652 130.321 29.3157 131.918 27.1986Z" fill="#7896C2"/>
<path d="M13.6458 12.814C17.2565 9.72826 19.1336 6.32946 17.8384 5.2226C16.5433 4.11574 12.5664 5.71998 8.95568 8.80576C5.345 11.8915 3.46788 15.2904 4.76302 16.3972C6.05815 17.5041 10.0351 15.8998 13.6458 12.814Z" fill="#7896C2"/>
<path d="M45.0733 12.7601V23.3212L51.4368 23.4409L51.353 12.8799L54.9255 12.7122L55.9582 33.4751L51.6042 33.523L51.381 27.4881H47.3898L47.5015 33.7864L38.8494 33.4512L39.268 12.353L45.0733 12.7601Z" fill="#516788"/>
<path d="M61.32 19.8727C61.1897 20.1122 61.0781 20.3916 60.985 20.7109C60.9106 21.0142 60.8734 21.4532 60.8734 22.028C60.8734 22.6506 60.9013 23.2493 60.9571 23.8241C61.0316 24.3988 61.1432 24.9576 61.2921 25.5004C61.4223 26.0752 61.5805 26.5222 61.7665 26.8415C61.9526 27.1608 62.1387 27.3524 62.3247 27.4163C63.0318 27.6398 63.7481 27.7516 64.4738 27.7516C65.1809 27.7516 65.7111 27.6318 66.0647 27.3923C66.4368 27.1529 66.6973 26.7856 66.8461 26.2907C67.2369 25.1572 67.4695 24.1594 67.5439 23.2972C67.6183 22.4351 67.6555 21.7805 67.6555 21.3335C67.6555 20.7907 67.5904 20.4075 67.4602 20.184C67.3485 19.9445 67.1066 19.7689 66.7345 19.6571C66.4182 19.5614 66.0647 19.4975 65.6739 19.4656C65.2832 19.4336 64.8831 19.4177 64.4738 19.4177C64.0645 19.4017 63.6644 19.4017 63.2737 19.4177C62.9015 19.4336 62.5573 19.4496 62.241 19.4656C61.8875 19.4975 61.6549 19.5534 61.5432 19.6332C61.4502 19.713 61.3758 19.7929 61.32 19.8727ZM58.0824 18.2203C58.6778 17.7573 59.5337 17.4539 60.6501 17.3103C61.7665 17.1506 63.1434 17.0468 64.7808 16.9989C65.3948 16.967 65.953 16.959 66.4554 16.975C66.9578 16.975 67.5067 17.0069 68.1021 17.0708C68.8092 17.1506 69.4418 17.2544 70 17.3821C70.5582 17.5098 70.921 17.6136 71.0885 17.6934C72.0374 18.2203 72.5119 19.6093 72.5119 21.8604C72.5119 22.7704 72.4468 23.6724 72.3165 24.5665C72.1863 25.4446 71.9816 26.3306 71.7025 27.2247C71.3862 28.1986 71.042 29.0208 70.6698 29.6913C70.2977 30.3459 69.8976 30.8807 69.4697 31.2958C68.2789 32.3815 66.474 32.9243 64.0551 32.9243C63.4039 32.9243 62.7899 32.8844 62.2131 32.8046C61.6549 32.7407 61.106 32.621 60.5664 32.4453C60.064 32.3176 59.6547 32.142 59.3384 31.9185C59.0407 31.679 58.8453 31.4715 58.7522 31.2958C58.3243 30.4178 57.9243 29.0447 57.5521 27.1768C57.3847 26.171 57.273 25.237 57.2172 24.3749C57.1614 23.4968 57.1335 22.6586 57.1335 21.8604C57.1335 20.9024 57.2079 20.1122 57.3567 19.4895C57.5242 18.8669 57.7661 18.4438 58.0824 18.2203Z" fill="#516788"/>
<path d="M73.8784 19.4656C74.4924 19.4496 75.1436 19.4257 75.8321 19.3937C76.5205 19.3618 77.1718 19.3299 77.7858 19.2979C78.4184 19.25 78.9859 19.2021 79.4883 19.1542C79.9907 19.0904 80.3628 19.0345 80.6047 18.9866C80.5861 19.0185 80.5675 19.0584 80.5489 19.1063C80.5303 19.1542 80.5117 19.25 80.493 19.3937C80.493 19.5214 80.4837 19.713 80.4651 19.9685C80.4465 20.2239 80.4186 20.5672 80.3814 20.9982C80.9768 20.3596 82.1025 19.8407 83.7585 19.4416C84.4098 19.266 85.0517 19.1542 85.6843 19.1063C86.3355 19.0425 87.1263 19.0345 88.0567 19.0824C88.2799 19.3857 88.4753 19.729 88.6428 20.1122C88.8102 20.4953 88.9591 20.8705 89.0893 21.2377C89.3126 20.9823 89.7033 20.7268 90.2615 20.4714C90.8384 20.2 91.5733 19.9126 92.4664 19.6093C93.2479 19.3378 93.9457 19.1702 94.5597 19.1063C95.1923 19.0265 95.797 19.0026 96.3738 19.0345C96.4855 19.1143 96.6343 19.3299 96.8204 19.6811C97.0251 20.0164 97.1925 20.4634 97.3228 21.0222C97.6763 22.5708 97.881 24.1194 97.9368 25.6681C97.9926 27.2167 98.0019 28.6296 97.9647 29.9069C97.9461 30.3539 97.9089 30.8329 97.8531 31.3437C97.8159 31.8387 97.7228 32.3416 97.574 32.8525C97.4623 32.9642 97.2949 33.052 97.0716 33.1159C96.8483 33.1957 96.5599 33.2436 96.2064 33.2596C95.7226 33.2755 95.2853 33.2436 94.8946 33.1638C94.5039 33.0999 94.1783 33.0201 93.9178 32.9243C94.0108 32.4613 94.0759 31.8866 94.1131 31.2001C94.1503 30.4976 94.1689 29.6913 94.1689 28.7813C94.1689 28.446 94.1596 28.1188 94.141 27.7994C94.141 27.4801 94.1317 27.1848 94.1131 26.9134C94.1131 26.642 94.0945 26.4025 94.0573 26.1949C94.0387 25.9874 94.0108 25.8357 93.9736 25.7399C93.9364 25.6601 93.7317 25.5883 93.3596 25.5244C92.9874 25.4605 92.5036 25.4286 91.9082 25.4286C90.9407 25.4286 90.2429 25.4765 89.815 25.5723C89.387 25.6521 89.1544 25.7399 89.1172 25.8357C89.08 26.0592 89.0149 26.4903 88.9219 27.1289C88.8474 27.7675 88.7823 28.486 88.7265 29.2842C88.6707 30.0984 88.6149 30.8089 88.559 31.4156C88.5218 32.0223 88.5218 32.6289 88.559 33.2356C87.8334 33.3474 87.1263 33.4272 86.4379 33.4751C85.768 33.523 84.9866 33.531 84.0934 33.4991C83.6097 33.4831 83.1631 33.4432 82.7538 33.3793C82.363 33.3314 81.9816 33.2197 81.6095 33.044C81.8513 32.8684 82.056 32.3895 82.2235 31.6072C82.4095 30.8249 82.6049 29.7552 82.8096 28.3981C82.8654 27.999 82.9119 27.56 82.9491 27.081C83.0049 26.5861 83.0422 26.1071 83.0608 25.6441C83.098 25.1811 83.1166 24.7501 83.1166 24.3509C83.1352 23.9518 83.1445 23.6325 83.1445 23.393C83.0515 23.3292 82.8096 23.2813 82.4188 23.2493C82.0281 23.2174 81.4699 23.2254 80.7442 23.2733C80.0558 23.3212 79.5069 23.401 79.0975 23.5128C78.6882 23.6086 78.4556 23.6964 78.3998 23.7762C78.3626 23.9518 78.2882 24.303 78.1765 24.8299C78.0649 25.3568 77.9718 26.1311 77.8974 27.1529C77.8602 27.6478 77.8323 28.1267 77.8137 28.5897C77.7951 29.0368 77.7765 29.4918 77.7579 29.9548C77.7393 30.4178 77.7207 30.8967 77.7021 31.3916C77.7021 31.8866 77.7021 32.4214 77.7021 32.9961C76.8275 33.0121 76.1112 33.0361 75.553 33.068C75.0134 33.1159 74.725 33.1877 74.6878 33.2835C74.7064 32.8844 74.7064 32.166 74.6878 31.1282C74.6692 30.0745 74.6133 28.6775 74.5203 26.9373C74.4273 25.0534 74.3249 23.4968 74.2133 22.2675C74.1203 21.0381 74.0086 20.1042 73.8784 19.4656Z" fill="#516788"/>
<path d="M100.749 16.975C101.344 16.1607 103.261 15.7536 106.498 15.7536C107.838 15.7536 108.992 15.8015 109.959 15.8973C110.927 15.9771 111.699 16.1288 112.276 16.3523C112.89 16.6397 113.448 17.7174 113.95 19.5853C114.285 21.0541 114.453 22.1876 114.453 22.9859V23.1296C114.49 23.2094 114.257 23.3371 113.755 23.5128C113.253 23.6724 112.462 23.848 111.383 24.0396C110.155 24.2631 108.954 24.4228 107.782 24.5186C106.61 24.6144 105.466 24.6623 104.349 24.6623L102.507 24.5665V24.9975C102.507 25.2689 102.554 25.5723 102.647 25.9076C102.74 26.2269 102.889 26.4663 103.093 26.626L107.112 26.8415L108.396 26.8655C108.452 26.8655 108.48 26.8176 108.48 26.7218L108.396 26.2668L108.285 25.8357C109.048 25.7559 109.782 25.6601 110.49 25.5483C111.215 25.4366 112.043 25.3807 112.974 25.3807C113.346 25.3807 113.606 25.3967 113.755 25.4286C113.922 25.4446 114.081 25.4685 114.229 25.5004L112.387 30.7211L110.713 30.7929L106.638 30.8887C104.74 30.8887 103.252 30.8009 102.172 30.6253C101.093 30.4497 100.405 30.1543 100.107 29.7392C99.6232 29.2124 99.3814 27.7116 99.3814 25.237C99.3814 24.3749 99.4093 23.5367 99.4651 22.7225C99.5395 21.8923 99.6325 21.0781 99.7442 20.2798C100.005 18.6034 100.34 17.5018 100.749 16.975ZM102.256 19.9206C102.182 20.0643 102.144 20.2878 102.144 20.5911C102.144 20.7987 102.144 21.0142 102.144 21.2377C102.144 21.4453 102.163 21.6528 102.2 21.8604C102.256 22.2276 102.377 22.507 102.563 22.6985C102.768 22.9061 103.326 23.0099 104.238 23.0099C104.721 23.0099 105.168 23.0019 105.577 22.9859C105.987 22.9699 106.387 22.93 106.778 22.8662C107.205 22.7863 107.54 22.6906 107.782 22.5788C108.043 22.4511 108.21 22.3234 108.285 22.1956C108.34 22.0839 108.368 21.9402 108.368 21.7646C108.387 21.573 108.396 21.3415 108.396 21.0701C108.396 20.5911 108.294 20.2638 108.089 20.0882C107.94 19.9126 107.512 19.7769 106.805 19.6811C106.322 19.6332 105.903 19.6013 105.549 19.5853C105.215 19.5534 104.88 19.5374 104.545 19.5374C103.168 19.5374 102.405 19.6651 102.256 19.9206Z" fill="#516788"/>
</g>
<defs>
<clipPath id="clip0_425_653">
<rect width="143.039" height="44.9024" fill="white" transform="translate(0.0183105 0.622559)"/>
</clipPath>
</defs>
</svg>
